<svg xmlns="http://www.w3.org/2000/svg" width="90.689" height="94.293" viewBox="0 0 90.689 94.293"><defs><style>.a{fill:#13545a;stroke:#13545a;stroke-width:0.25px;}</style></defs><g transform="translate(0.125 0.125)"><g transform="translate(0 0)"><g transform="translate(0 0)"><g transform="translate(70.49 57.949)"><path class="a" d="M93.513,161.349H109.66a1.9,1.9,0,0,0,1.9-1.9V143.3a1.9,1.9,0,0,0-3.8,0v14.247H93.513a1.9,1.9,0,0,0,0,3.8Z" transform="translate(-91.612 -141.4)"/></g><g transform="translate(70.49)"><path class="a" d="M109.66,86.525a1.9,1.9,0,0,0,1.9-1.9V68.477a1.9,1.9,0,0,0-1.9-1.9H93.513a1.9,1.9,0,0,0,0,3.8H107.76V84.624A1.9,1.9,0,0,0,109.66,86.525Z" transform="translate(-91.612 -66.576)"/></g><g transform="translate(0 57.949)"><path class="a" d="M184.53,161.349h16.148a1.9,1.9,0,1,0,0-3.8H186.43V143.3a1.9,1.9,0,0,0-3.8,0v16.148A1.9,1.9,0,0,0,184.53,161.349Z" transform="translate(-182.629 -141.4)"/></g><g transform="translate(26.887 74.096)"><path class="a" d="M139.354,182.2a1.9,1.9,0,0,0,1.322-.534l16.157-15.612H162.2a1.9,1.9,0,1,0,0-3.8h-6.136a1.9,1.9,0,0,0-1.322.534l-13.488,13.034V164.151a1.9,1.9,0,0,0-1.9-1.9h-6.216a1.9,1.9,0,1,0,0,3.8h4.315V180.3a1.9,1.9,0,0,0,1.159,1.75A1.927,1.927,0,0,0,139.354,182.2Z" transform="translate(-131.237 -162.25)"/></g><path class="a" d="M184.53,86.525a1.9,1.9,0,0,0,1.9-1.9V70.377h14.247a1.9,1.9,0,1,0,0-3.8H184.53a1.9,1.9,0,0,0-1.9,1.9V84.624A1.9,1.9,0,0,0,184.53,86.525Z" transform="translate(-182.629 -66.576)"/><g transform="translate(10.375 16.299)"><rect class="a" width="3.801" height="45.298" rx="1.901" transform="translate(32.944)"/><rect class="a" width="3.801" height="16.472" rx="1.901" transform="translate(24.708 14.413)"/><rect class="a" width="3.801" height="27.559" rx="1.901" transform="translate(16.472 8.87)"/><rect class="a" width="3.801" height="12.988" rx="1.901" transform="translate(8.236 16.155)"/><rect class="a" width="3.801" height="5.702" rx="1.901" transform="translate(0 19.798)"/><rect class="a" width="3.801" height="16.472" rx="1.901" transform="translate(41.18 14.413)"/><rect class="a" width="3.801" height="27.559" rx="1.901" transform="translate(49.416 8.87)"/><rect class="a" width="3.801" height="12.988" rx="1.901" transform="translate(57.652 16.155)"/><rect class="a" width="3.801" height="5.702" rx="1.901" transform="translate(65.888 19.798)"/></g></g></g></g></svg>