<svg xmlns="http://www.w3.org/2000/svg" width="97.697" height="101.591" viewBox="0 0 97.697 101.591"><defs><style>.a{fill:#fff;}</style></defs><g transform="translate(0 0)"><g transform="translate(0 0)"><g transform="translate(76.148 62.6)"><path class="a" d="M93.665,162.95h17.444a2.052,2.052,0,0,0,2.053-2.053V143.453a2.053,2.053,0,1,0-4.106,0v15.391H93.665a2.053,2.053,0,1,0,0,4.106Z" transform="translate(-91.612 -141.4)"/></g><g transform="translate(76.148)"><path class="a" d="M111.109,88.126a2.053,2.053,0,0,0,2.053-2.053V68.629a2.053,2.053,0,0,0-2.053-2.053H93.665a2.053,2.053,0,1,0,0,4.106h15.39V86.073A2.053,2.053,0,0,0,111.109,88.126Z" transform="translate(-91.612 -66.576)"/></g><g transform="translate(0 62.6)"><path class="a" d="M184.682,162.95h17.444a2.053,2.053,0,1,0,0-4.106H186.735V143.453a2.053,2.053,0,1,0-4.106,0V160.9A2.052,2.052,0,0,0,184.682,162.95Z" transform="translate(-182.629 -141.4)"/></g><g transform="translate(29.045 80.043)"><path class="a" d="M140,183.8a2.052,2.052,0,0,0,1.428-.577l17.454-16.865h5.8a2.053,2.053,0,0,0,0-4.106h-6.629a2.057,2.057,0,0,0-1.428.577l-14.571,14.079V164.3A2.051,2.051,0,0,0,140,162.25H133.29a2.053,2.053,0,1,0,0,4.106h4.662v15.389a2.057,2.057,0,0,0,1.252,1.891A2.082,2.082,0,0,0,140,183.8Z" transform="translate(-131.237 -162.25)"/></g><path class="a" d="M184.682,88.126a2.052,2.052,0,0,0,2.053-2.053V70.682h15.391a2.053,2.053,0,1,0,0-4.106H184.682a2.053,2.053,0,0,0-2.053,2.053V86.073A2.053,2.053,0,0,0,184.682,88.126Z" transform="translate(-182.629 -66.576)"/><g transform="translate(11.207 17.607)"><rect class="a" width="4.106" height="48.934" rx="2.053" transform="translate(35.588)"/><rect class="a" width="4.106" height="17.794" rx="2.053" transform="translate(26.691 15.57)"/><rect class="a" width="4.106" height="29.771" rx="2.053" transform="translate(17.794 9.581)"/><rect class="a" width="4.106" height="14.03" rx="2.053" transform="translate(8.897 17.452)"/><rect class="a" width="4.106" height="6.16" rx="2.053" transform="translate(0 21.387)"/><rect class="a" width="4.106" height="17.794" rx="2.053" transform="translate(44.485 15.57)"/><rect class="a" width="4.106" height="29.771" rx="2.053" transform="translate(53.382 9.581)"/><rect class="a" width="4.106" height="14.03" rx="2.053" transform="translate(62.279 17.452)"/><rect class="a" width="4.106" height="6.16" rx="2.053" transform="translate(71.176 21.387)"/></g></g></g></svg>