<?xml version="1.0" encoding="UTF-8"?>
<svg width="311px" height="59px" viewBox="0 0 311 59" version="1.1" xmlns="http://www.w3.org/2000/svg" xmlns:xlink="http://www.w3.org/1999/xlink">
    <title>Group</title>
    <g id="BRAND" stroke="none" stroke-width="1" fill="none" fill-rule="evenodd">
        <g id="Artboard" transform="translate(-496.000000, -409.000000)" fill="#FFFFFF" fill-rule="nonzero">
            <g id="Navigation" transform="translate(244.000000, 372.000000)">
                <g id="Group" transform="translate(252.141000, 38.443000)">
                    <g transform="translate(0.860000, -0.005000)" id="Path">
                        <path d="M61.685,35.63 L61.685,45.163 C61.6783986,45.9653337 61.0243539,46.6113313 60.222,46.6080128 L50.257,46.6080128 L50.257,46.572 C49.5306143,46.4145749 49.0421244,45.7317959 49.1276619,44.9934855 C49.2131995,44.2551751 49.8448618,43.7021722 50.588,43.715 L58.76,43.715 L58.76,35.63 C58.76,34.8220074 59.4150074,34.167 60.223,34.167 C61.0309926,34.167 61.686,34.8220074 61.686,35.63 L61.685,35.63 Z"></path>
                        <path d="M40.975,45.154 C40.9726204,45.5396271 40.8171447,45.9085138 40.5427774,46.1795054 C40.2684101,46.4504971 39.897627,46.6013943 39.512,46.599 L36.44,46.599 L26.907,55.715 C26.6335082,55.9786376 26.2678663,56.1250379 25.888,56.123021 C25.6925611,56.122025 25.4992233,56.0826099 25.319,56.007 C24.7798081,55.7837243 24.4273515,55.2585875 24.425,54.675 L24.425,46.599 L22.182,46.599 C21.3839485,46.599 20.737,45.9520515 20.737,45.154 C20.737,44.3559485 21.3839485,43.7089707 22.182,43.7089707 L25.888,43.7089707 C26.2761533,43.7065436 26.6493071,43.8587557 26.925,44.132 C27.1987633,44.4014466 27.3523384,44.7698828 27.351,45.154 L27.351,51.27 L34.841,44.12 C35.1168368,43.8603789 35.4812009,43.7155629 35.86,43.715 L39.521,43.715 C40.3175327,43.7165793 40.9651611,44.3575265 40.975,45.154 L40.975,45.154 Z"></path>
                        <path d="M61.686,1.449 L61.686,10.982 C61.6793986,11.7843337 61.0253539,12.4303313 60.223,12.4270128 L60.223,12.4270128 C59.4211405,12.4303243 58.7679565,11.7838511 58.763,10.982 L58.763,2.894 L50.586,2.894 C50.0535,2.91825681 49.5507329,2.64798345 49.277233,2.19044386 C49.0037331,1.73290428 49.0037331,1.16209572 49.277233,0.704556136 C49.5507329,0.247016548 50.0535,-0.0232568057 50.586,0.001 L60.218,0.001 C61.0227897,-0.00343695749 61.6793974,0.644225203 61.686,1.449 Z"></path>
                        <path d="M0,10.974 L0,1.44 C0.0120499215,0.641583941 0.664500166,0.00162078245 1.463,0.005 L11.095,0.005 C11.6275,-0.0192568057 12.1302671,0.251016548 12.403767,0.708556136 C12.6772669,1.16609572 12.6772669,1.73690428 12.403767,2.19444386 C12.1302671,2.65198345 11.6275,2.92225681 11.095,2.898 L2.926,2.898 L2.926,10.978 C2.92689016,11.3626235 2.77215355,11.7312501 2.497,12 C2.22222873,12.2727873 1.85017979,12.4249891 1.463,12.4230193 L1.463,12.4230193 C0.659095526,12.4263226 0.00440719727,11.7778993 0,10.974 Z"></path>
                        <path d="M12.554,45.152 C12.5516204,45.5376271 12.3961447,45.9065138 12.1217774,46.1775054 C11.8474101,46.4484971 11.476627,46.5993943 11.091,46.5970281 L1.463,46.5970281 C1.07765151,46.5993935 0.70717833,46.4484012 0.433287202,46.177324 C0.159396073,45.9062468 0.00458604415,45.5373527 0.003,45.152 L0.003,35.619 C0.0384132699,34.837564 0.682261993,34.2222325 1.4645,34.2222325 C2.24673801,34.2222325 2.89058673,34.837564 2.926,35.619 L2.926,43.698 L11.098,43.698 C11.9011184,43.6985495 12.5523465,44.3488831 12.554,45.152 L12.554,45.152 Z"></path>
                        <path d="M11.247,21.716 C11.5214655,21.9864495 11.676,22.3556765 11.676,22.741 L11.676,23.861 C11.676,24.6689926 11.0209926,25.324 10.213,25.324 C9.40500741,25.324 8.75,24.6689926 8.75,23.861 L8.75,22.741 C8.75569694,22.1513176 9.11416946,21.6224515 9.65979968,21.3987431 C10.2054299,21.1750347 10.8319888,21.3000379 11.25,21.716 L11.247,21.716 Z"></path>
                        <path d="M26.721,18.541 C26.9933427,18.8114041 27.1466584,19.1792178 27.147,19.563 L27.147,27.038 C27.1115867,27.819436 26.467738,28.4347675 25.6855,28.4347675 C24.903262,28.4347675 24.2594133,27.819436 24.224,27.038 L24.224,19.563 C24.2308848,18.973862 24.5897946,18.4460871 25.1351623,18.2231407 C25.6805301,18.0001944 26.3063783,18.1254002 26.724,18.541 L26.721,18.541 Z"></path>
                        <path d="M37.035,18.541 C37.309293,18.8103345 37.4638702,19.1785814 37.464,19.563 L37.464,27.038 C37.464,27.5606796 37.1851539,28.0436555 36.7325001,28.3049953 C36.2798462,28.5663351 35.7221538,28.5663351 35.2694999,28.3049953 C34.8168461,28.0436555 34.538,27.5606796 34.538,27.038 L34.538,19.563 C34.5448848,18.973862 34.9037946,18.4460871 35.4491623,18.2231407 C35.9945301,18.0001944 36.6203783,18.1254002 37.038,18.541 L37.035,18.541 Z"></path>
                        <path d="M31.878,10.038 C32.1508843,10.3082876 32.3052033,10.6759192 32.307,11.06 L32.307,35.54 C32.307,36.3479926 31.6519926,37.003 30.844,37.003 C30.0360074,37.003 29.381,36.3479926 29.381,35.54 L29.381,11.06 C29.3878848,10.470862 29.7467946,9.94308708 30.2921623,9.72014075 C30.8375301,9.49719442 31.4633783,9.6224002 31.881,10.038 L31.878,10.038 Z"></path>
                        <path d="M42.194,15.27 C42.4684655,15.5404495 42.623,15.9096765 42.623,16.295 L42.623,30.295 C42.623,31.1029925 41.9679925,31.7579998 41.16,31.7579998 C40.3520075,31.7579998 39.697,31.1029925 39.697,30.295 L39.697,16.295 C39.7026969,15.7053176 40.0611695,15.1764515 40.6067997,14.9527431 C41.1524299,14.7290347 41.7789888,14.8540379 42.197,15.27 L42.194,15.27 Z"></path>
                        <path d="M16.404,19.569 C16.678293,19.8383345 16.8328702,20.2065814 16.833,20.591 L16.833,26.01 C16.833,26.8179926 16.1779926,27.473 15.37,27.473 C14.5620074,27.473 13.907,26.8179926 13.907,26.01 L13.907,20.588 C13.9138848,19.998862 14.2727946,19.4710871 14.8181623,19.2481407 C15.3635301,19.0251944 15.9893783,19.1504002 16.407,19.566 L16.404,19.569 Z"></path>
                        <path d="M21.561,15.27 C21.8354655,15.5404495 21.99,15.9096765 21.99,16.295 L21.99,30.295 C21.99,31.1029925 21.3349925,31.7579998 20.527,31.7579998 C19.7190075,31.7579998 19.064,31.1029925 19.064,30.295 L19.064,16.295 C19.0696969,15.7053176 19.4281695,15.1764515 19.9737997,14.9527431 C20.5194299,14.7290347 21.1459888,14.8540379 21.564,15.27 L21.561,15.27 Z"></path>
                        <path d="M47.348,19.568 C47.622293,19.8373345 47.7768702,20.2055814 47.777,20.59 L47.777,26.009 C47.7415867,26.790436 47.097738,27.4057675 46.3155,27.4057675 C45.533262,27.4057675 44.8894133,26.790436 44.854,26.009 L44.854,20.59 C44.8603887,20.0020742 45.2181178,19.4750943 45.7621707,19.2521505 C46.3062236,19.0292066 46.9308829,19.1536199 47.348,19.568 L47.348,19.568 Z"></path>
                        <path d="M52.937,22.742 L52.937,23.859 C52.937,24.6669926 52.2819926,25.322 51.474,25.322 C50.6660074,25.322 50.011,24.6669926 50.011,23.859 L50.011,22.739 C50.011,21.9310074 50.6660074,21.276 51.474,21.276 C52.2819926,21.276 52.937,21.9310074 52.937,22.739 L52.937,22.742 Z"></path>
                    </g>
                    <path d="M79.71,11.519 C79.7290353,10.0735182 80.9014218,8.9091344 82.347,8.9 C83.05426,8.88835367 83.7347939,9.16997886 84.227,9.678 C84.736289,10.1606383 85.0187144,10.8354824 85.005,11.537 C85.0166463,12.24426 84.7350211,12.9247939 84.227,13.417 C83.7432208,13.9264422 83.0674121,14.2088155 82.365,14.195 C81.6586394,14.2065341 80.9790759,13.924861 80.488,13.417 C79.9774979,12.9190472 79.6958739,12.2320006 79.71,11.519 Z M84.39,18.839 L84.39,36.439 L80.323,36.439 L80.323,18.839 L84.39,18.839 Z" id="Shape"></path>
                    <path d="M91.391,18.837 L95.475,18.837 L95.475,20.464 C96.7208343,19.1326885 98.4567858,18.3685808 100.28,18.349 C102.085296,18.2481843 103.841607,18.9571603 105.071,20.283 C106.064333,21.379 106.561,23.1666667 106.561,25.646 L106.561,36.434 L102.468,36.434 L102.468,26.603 C102.580676,25.3585357 102.330239,24.1080879 101.747,23.003 C101.105823,22.269264 100.148229,21.8926402 99.179,21.993 C98.0508487,21.8868186 96.9530805,22.3970973 96.307,23.328 C95.6281199,24.7640795 95.3414125,26.3542528 95.476,27.937 L95.476,36.431 L91.391,36.431 L91.391,18.837 Z" id="Path"></path>
                    <path d="M123.762,21.837 L120.401,23.625 C119.867667,22.5403333 119.211333,21.999 118.432,22.001 C118.076247,21.9931053 117.731705,22.1256767 117.473,22.37 C117.20849,22.6126147 117.062508,22.9582283 117.073,23.317 C117.073,23.9943333 117.855667,24.6636667 119.421,25.325 C121.017244,25.9072613 122.493534,26.776564 123.777,27.89 C124.553727,28.755253 124.95639,29.8927765 124.897,31.054 C124.927986,32.6817437 124.241555,34.2407503 123.02,35.317 C121.358048,36.7441683 119.106101,37.27446 116.981951,36.738848 C114.857801,36.2032361 113.126542,34.6685647 112.34,32.624 L115.808,31.015 C116.102404,31.5973199 116.472254,32.1383093 116.908,32.624 C117.386167,33.0765596 118.02273,33.3235731 118.681,33.312 C120.055,33.312 120.741333,32.6853333 120.74,31.432 C120.74,30.7073333 120.209667,30.033 119.149,29.409 C118.741,29.203 118.33,29.004 117.922,28.809 C117.514,28.614 117.097,28.419 116.674,28.209 C115.735118,27.8035174 114.88707,27.2138962 114.18,26.475 C113.543179,25.6705726 113.216669,24.6640693 113.26,23.639 C113.21708,22.2057236 113.789618,20.8226044 114.833,19.839 C115.887166,18.8498954 117.287863,18.3147577 118.733,18.349 C120.989667,18.3483333 122.666,19.511 123.762,21.837 Z" id="Path"></path>
                    <path d="M129.79,11.519 C129.809035,10.0735182 130.981422,8.9091344 132.427,8.9 C133.13426,8.88835367 133.814794,9.16997886 134.307,9.678 C134.816394,10.1605661 135.098839,10.8354586 135.085,11.537 C135.096646,12.24426 134.815021,12.9247939 134.307,13.417 C133.823221,13.9264422 133.147412,14.2088155 132.445,14.195 C131.738639,14.2065341 131.059076,13.924861 130.568,13.417 C130.057498,12.9190472 129.775874,12.2320006 129.79,11.519 L129.79,11.519 Z M134.47,18.839 L134.47,36.439 L130.403,36.439 L130.403,18.839 L134.47,18.839 Z" id="Shape"></path>
                    <path d="M154.445,5.916 L158.529,5.916 L158.529,36.438 L154.445,36.438 L154.445,34.594 C153.023488,36.0792925 151.06087,36.9253105 149.005,36.939 C146.713823,36.9918338 144.516864,36.0273688 143.005,34.305 C141.401583,32.4405376 140.557131,30.0417352 140.639,27.584 C140.561423,25.1700732 141.407616,22.8174703 143.005,21.006 C144.429615,19.3401106 146.504124,18.3704355 148.695953,18.3459115 C150.887782,18.3213875 152.983467,19.2444031 154.445,20.878 L154.445,5.916 Z M144.796,27.584 C144.730886,29.0766823 145.213085,30.5417699 146.152,31.704 C147.014092,32.7469984 148.305097,33.3394758 149.658,33.313 C151.045522,33.3640591 152.383596,32.7940027 153.308,31.758 C155.163127,29.3509655 155.163127,25.9960345 153.308,23.589 C152.399797,22.5500907 151.073173,21.9737764 149.694,22.019 C148.346503,21.9966305 147.059915,22.579375 146.188,23.607 C145.247886,24.7147584 144.751918,26.1317605 144.796,27.584 L144.796,27.584 Z" id="Shape"></path>
                    <path d="M181.541,28.597 L168.925,28.597 C168.96822,29.878229 169.467942,31.1018228 170.334,32.047 C171.177935,32.8960423 172.33761,33.3548387 173.534,33.313 C174.427127,33.3483737 175.307808,33.0944458 176.045,32.589 C176.934245,31.8296779 177.685921,30.9227281 178.267,29.908 L181.702,31.824 C181.225572,32.6557757 180.662434,33.4347826 180.022,34.148 C179.464749,34.763085 178.825403,35.2984531 178.122,35.739 C177.444495,36.1541631 176.706739,36.4618145 175.935,36.651 C175.101271,36.8537152 174.246013,36.9544523 173.388,36.951 C171.014525,37.054191 168.711023,36.1331543 167.063,34.422 C165.412237,32.5687552 164.556332,30.140758 164.68,27.662 C164.569394,25.1975613 165.39536,22.7825404 166.992,20.902 C168.562316,19.1630208 170.834442,18.2268988 173.174,18.355 C175.484917,18.2440921 177.728911,19.1485573 179.317,20.831 C180.915771,22.727348 181.718512,25.1689005 181.557,27.644 L181.541,28.597 Z M177.37,25.269 C177.040455,23.2936859 175.268391,21.8890011 173.27,22.019 C172.797168,22.0155835 172.327068,22.090948 171.879,22.242 C171.447583,22.3901996 171.044506,22.6106749 170.687,22.894 C170.326334,23.1804018 170.016934,23.525983 169.772,23.916 C169.511857,24.3350902 169.316962,24.791306 169.194,25.269 L177.37,25.269 Z" id="Shape"></path>
                    <polygon id="Path" points="203.297 18.837 207.849 28.722 212.386 18.837 216.956 18.837 207.813 37.65 198.742 18.837"></polygon>
                    <path d="M220.022,27.512 C219.981615,25.0620432 220.971754,22.707697 222.751,21.023 C226.481423,17.4486796 232.368238,17.4566241 236.089,21.041 C239.710165,24.7163648 239.702141,30.6204911 236.071,34.286 C234.272857,36.0422886 231.841792,36.9982001 229.329,36.937 C226.836994,36.9977927 224.432842,36.0150338 222.697,34.226 C220.912343,32.456128 219.943421,30.0242246 220.022,27.512 L220.022,27.512 Z M224.193,27.583 C224.109831,29.1026554 224.614324,30.5960853 225.602,31.754 C227.721341,33.8210669 231.099926,33.8290405 233.229,31.772 C235.129273,29.3689446 235.129273,25.9750554 233.229,23.572 C232.237181,22.5298516 230.84452,21.965427 229.407,22.023 C227.982609,21.9703419 226.60504,22.5362461 225.629,23.575 C224.640752,24.6724034 224.120108,26.1123386 224.178,27.588 L224.193,27.583 Z" id="Shape"></path>
                    <path d="M244.333,11.518 C244.326534,10.8231398 244.608193,10.1566434 245.111,9.677 C245.606437,9.17930618 246.279749,8.89951416 246.982,8.89951416 C247.684251,8.89951416 248.357563,9.17930618 248.853,9.677 C249.360559,10.1605933 249.641746,10.8350795 249.628,11.536 C249.639355,12.2426091 249.359012,12.9226669 248.853,13.416 C248.368862,13.9249218 247.693294,14.2071947 246.991,14.194 C246.281976,14.1945681 245.602179,13.9115149 245.103082,13.4079097 C244.603985,12.9043045 244.327056,12.2219907 244.334,11.513 L244.333,11.518 Z M249.013,18.838 L249.013,36.438 L244.946,36.438 L244.946,18.838 L249.013,18.838 Z" id="Shape"></path>
                    <path d="M269.713,19.596 L269.713,24.996 C269.024013,24.0797378 268.179939,23.2911679 267.219,22.666 C266.445921,22.2193537 265.564553,21.9947727 264.672,22.017 C263.229452,21.980494 261.840726,22.5654125 260.859,23.623 C259.839173,24.7127035 259.292937,26.1622608 259.34,27.654 C259.28283,29.1484722 259.808469,30.6067079 260.806,31.721 C261.774076,32.7736707 263.151487,33.3541904 264.581,33.312 C265.483726,33.3303679 266.375453,33.1114016 267.167,32.677 C268.149044,32.0380076 269.011156,31.2314072 269.714,30.294 L269.714,35.657 C268.191717,36.478542 266.492705,36.9181369 264.763,36.938 C262.224161,37.0093252 259.763019,36.0581591 257.932,34.298 C256.123721,32.5857851 255.12556,30.1875821 255.185,27.698 C255.137854,25.188913 256.147811,22.7756143 257.968,21.048 C259.783457,19.2558522 262.248679,18.2774864 264.799,18.337 C266.516853,18.3364216 268.20706,18.769464 269.713,19.596 L269.713,19.596 Z" id="Path"></path>
                    <path d="M291.531,28.597 L278.918,28.597 C278.961307,29.8782103 279.461018,31.1017749 280.327,32.047 C281.170935,32.8960423 282.33061,33.3548387 283.527,33.313 C284.420127,33.3483737 285.300808,33.0944458 286.038,32.589 C286.925093,31.8275599 287.67644,30.9210064 288.26,29.908 L291.695,31.824 C291.218591,32.655788 290.655452,33.4347968 290.015,34.148 C289.457066,34.7623744 288.817824,35.2976558 288.115,35.739 C287.43751,36.1541919 286.699749,36.4618452 285.928,36.651 C285.093279,36.8538592 284.23701,36.9545966 283.378,36.951 C281.009613,37.0467265 278.713297,36.1252887 277.068,34.419 C275.415914,32.5665366 274.559811,30.1379792 274.685,27.659 C274.574294,25.194547 275.400272,22.7794905 276.997,20.899 C278.567316,19.1600208 280.839442,18.2238988 283.179,18.352 C285.489917,18.2410921 287.733911,19.1455573 289.322,20.828 C290.920771,22.724348 291.723512,25.1659005 291.562,27.641 L291.531,28.597 Z M287.36,25.269 C287.030455,23.2936859 285.258391,21.8890011 283.26,22.019 C282.787145,22.0152841 282.316996,22.0906566 281.869,22.242 C281.437298,22.3895518 281.034114,22.6100849 280.677,22.894 C280.316731,23.1805287 280.00768,23.5260978 279.763,23.916 C279.501448,24.3343559 279.306457,24.7907956 279.185,25.269 L287.36,25.269 Z" id="Shape"></path>
                    <path d="M308.054,21.837 L304.694,23.624 C304.160667,22.5393333 303.503333,21.998 302.722,22 C302.367278,21.9928981 302.02396,22.1254131 301.766,22.369 C301.501823,22.6118489 301.355907,22.9573033 301.366,23.316 C301.366,23.9933333 302.149333,24.6626667 303.716,25.324 C305.312225,25.9063022 306.788508,26.7756007 308.072,27.889 C308.848727,28.754253 309.25139,29.8917765 309.192,31.053 C309.223053,32.681389 308.535344,34.2408048 307.312,35.316 C305.652621,36.7431022 303.402569,37.273434 301.280531,36.7376021 C299.158494,36.2017703 297.429945,34.666809 296.647,32.623 L300.118,31.014 C300.412424,31.5963081 300.782272,32.1372949 301.218,32.623 C301.695246,33.0751027 302.330704,33.3221056 302.988,33.311 C304.36,33.311 305.047333,32.6843333 305.05,31.431 C305.05,30.7063333 304.519667,30.032 303.459,29.408 L302.231,28.808 C301.824333,28.608 301.408333,28.408 300.983,28.208 C300.044131,27.8024937 299.196088,27.2128755 298.489,26.474 C297.851901,25.6696686 297.525041,24.6631824 297.568,23.638 C297.524177,22.2051618 298.095615,20.8220629 299.138,19.838 C300.192457,18.849359 301.592955,18.3142967 303.038,18.348 C305.288,18.348 306.96,19.511 308.054,21.837 Z" id="Path"></path>
                </g>
            </g>
        </g>
    </g>
</svg>