<svg xmlns="http://www.w3.org/2000/svg" width="69.886" height="61.667" viewBox="0 0 69.886 61.667"><defs><style>.a{fill:#13545a;}</style></defs><path class="a" d="M64.757,30.107H42.405a1.026,1.026,0,1,0,0,2.052H64.757a3.081,3.081,0,0,1,3.077,3.077v35.9H62.917V39.626a3.081,3.081,0,0,0-3.077-3.077H10.046a3.081,3.081,0,0,0-3.077,3.077v31.51H2.051v-35.9a3.081,3.081,0,0,1,3.077-3.077H38.3a1.026,1.026,0,1,0,0-2.052H5.129A5.135,5.135,0,0,0,0,35.236V76.71a5.134,5.134,0,0,0,5.129,5.129H27.682l-1.034,7.884H23a1.026,1.026,0,0,0,0,2.052H46.882a1.026,1.026,0,0,0,0-2.052H43.238L42.2,81.838H53.073a1.026,1.026,0,1,0,0-2.052H5.129A3.081,3.081,0,0,1,2.051,76.71V73.186H67.834V76.71a3.081,3.081,0,0,1-3.077,3.077H57.176a1.026,1.026,0,1,0,0,2.052h7.581a5.134,5.134,0,0,0,5.129-5.129V35.236A5.134,5.134,0,0,0,64.757,30.107ZM41.169,89.722H28.717l1.034-7.884H40.135ZM9.021,39.625A1.027,1.027,0,0,1,10.046,38.6H59.84a1.027,1.027,0,0,1,1.026,1.026v5.048H9.021Zm0,7.1H60.865v24.41H55.879V66.563a1.026,1.026,0,0,0-1.026-1.026H37.4a1.026,1.026,0,0,0-1.026,1.026v4.572H33.513V66.563a1.026,1.026,0,0,0-1.026-1.026H15.033a1.026,1.026,0,0,0-1.026,1.026v4.572H9.021Zm44.806,24.41h-15.4V67.588h15.4Zm-22.365,0h-15.4V67.588h15.4Z" transform="translate(0 -30.107)"/></svg>