<svg xmlns="http://www.w3.org/2000/svg" width="60.629" height="61.333" viewBox="0 0 60.629 61.333"><defs><style>.a{fill:#13545a;}</style></defs><g transform="translate(-1248 -1374.333)"><path class="a" d="M60.616,13.224a.981.981,0,0,0-.052-.263c-.011-.033-.019-.064-.033-.1a1.027,1.027,0,0,0-.2-.3L48.059.3a1.006,1.006,0,0,0-.3-.2c-.03-.014-.061-.022-.093-.033A1.006,1.006,0,0,0,47.4.008C47.38.011,47.362,0,47.34,0H16.674a5.117,5.117,0,0,0-5.111,5.111v7.523a19.384,19.384,0,0,0,0,35.471v8.116a5.117,5.117,0,0,0,5.111,5.111H55.518a5.117,5.117,0,0,0,5.111-5.111V13.289c0-.022-.011-.042-.013-.064Zm-3.477-.958H49.385a1.022,1.022,0,0,1-1.022-1.022V3.49ZM2.066,30.37A17.355,17.355,0,0,1,19.444,12.992q.871,0,1.726.084A17.33,17.33,0,0,1,36.607,27.768a17.548,17.548,0,0,1,.214,2.6,17.377,17.377,0,0,1-34.754,0Zm29.25,15.356c.14-.108.278-.216.415-.327a19.13,19.13,0,0,0,1.448-1.293,19.214,19.214,0,0,0,1.293-1.447c.111-.137.219-.276.327-.416.124-.162.258-.315.376-.48l8.714,8.725a3.043,3.043,0,0,1,0,4.325,3.114,3.114,0,0,1-4.328,0L30.836,46.1c.165-.12.319-.253.48-.376Zm24.2,13.563H16.674a3.067,3.067,0,0,1-3.067-3.067V48.9c.063.02.13.034.194.053.164.05.329.09.5.136.382.1.768.2,1.157.281.191.04.382.077.575.111.389.068.782.122,1.176.168.176.02.35.045.527.06.567.048,1.137.08,1.712.08a19.3,19.3,0,0,0,9.629-2.566l9.038,9.029a5.111,5.111,0,1,0,7.224-7.218L36.3,40a19.289,19.289,0,0,0,2.566-9.628q0-.971-.094-1.927a19.418,19.418,0,0,0-19.328-17.5c-.575,0-1.146.032-1.712.08-.177.015-.352.04-.528.06q-.59.066-1.173.168-.291.051-.58.111c-.384.08-.766.174-1.144.278-.17.046-.339.087-.511.138-.063.019-.128.033-.191.053V5.111a3.067,3.067,0,0,1,3.067-3.067H46.318v9.2a3.067,3.067,0,0,0,3.067,3.067h9.2V56.222a3.066,3.066,0,0,1-3.067,3.067Zm0,0" transform="translate(1248 1374.333)"/><path class="a" d="M163.021,49.022A1.022,1.022,0,0,0,162,48H139.51a1.022,1.022,0,0,0,0,2.044H162A1.022,1.022,0,0,0,163.021,49.022Zm0,0" transform="translate(1127.208 1332.467)"/><path class="a" d="M327.777,192H315.51a1.022,1.022,0,0,0,0,2.044h12.267a1.022,1.022,0,0,0,0-2.044Zm0,0" transform="translate(973.696 1206.866)"/><path class="a" d="M327.777,240H315.51a1.022,1.022,0,1,0,0,2.044h12.267a1.022,1.022,0,0,0,0-2.044Zm0,0" transform="translate(973.696 1165)"/><path class="a" d="M321.821,289.022A1.022,1.022,0,0,0,320.8,288H307.51a1.022,1.022,0,0,0,0,2.044H320.8A1.022,1.022,0,0,0,321.821,289.022Zm0,0" transform="translate(980.674 1123.133)"/><path class="a" d="M349.732,337.022A1.022,1.022,0,0,0,348.71,336h-9.2a1.022,1.022,0,0,0,0,2.044h9.2A1.022,1.022,0,0,0,349.732,337.022Zm0,0" transform="translate(952.764 1081.267)"/><path class="a" d="M260.71,97.022A1.022,1.022,0,0,0,259.688,96H251.51a1.022,1.022,0,0,0,0,2.044h8.178A1.022,1.022,0,0,0,260.71,97.022Zm0,0" transform="translate(1029.519 1290.6)"/><path class="a" d="M307.866,145.022A1.022,1.022,0,0,0,306.843,144H291.51a1.022,1.022,0,0,0,0,2.044h15.333A1.022,1.022,0,0,0,307.866,145.022Zm0,0" transform="translate(994.63 1248.733)"/><path class="a" d="M115.51,186.044h7.156a1.022,1.022,0,1,0,0-2.044H115.51a1.022,1.022,0,1,0,0,2.044Zm0,0" transform="translate(1148.141 1213.845)"/><path class="a" d="M99.866,233.022A1.022,1.022,0,0,0,98.843,232H83.51a1.022,1.022,0,1,0,0,2.044H98.843A1.022,1.022,0,0,0,99.866,233.022Zm0,0" transform="translate(1176.053 1171.978)"/><path class="a" d="M122.666,280H115.51a1.022,1.022,0,0,0,0,2.044h7.156a1.022,1.022,0,0,0,0-2.044Zm0,0" transform="translate(1148.141 1130.111)"/><path class="a" d="M54.764,146.528a14.991,14.991,0,0,0,5.964-5.784c.081-.141.169-.278.245-.421.039-.074.07-.15.108-.224.155-.3.306-.6.44-.9s.24-.6.349-.9c.031-.087.071-.172.1-.26a15.341,15.341,0,1,0-7.208,8.494Zm-13.647-1.821a13.189,13.189,0,0,1-3.027-2.268,13.461,13.461,0,0,1-1.668-2.029q-.362-.542-.668-1.113a13.29,13.29,0,1,1,23.417.059v.008A13.064,13.064,0,0,1,53.8,144.73a13.25,13.25,0,0,1-12.686-.019Zm0,0" transform="translate(1219.956 1271.658)"/><path class="a" d="M385.644,384a1.022,1.022,0,0,0-1.022,1.022v4.089a1.022,1.022,0,0,1-1.022,1.022H379.51a1.022,1.022,0,0,0,0,2.044H383.6a3.066,3.066,0,0,0,3.067-3.067v-4.089A1.022,1.022,0,0,0,385.644,384Zm0,0" transform="translate(917.874 1039.399)"/></g></svg>