<svg xmlns="http://www.w3.org/2000/svg" width="117.671" height="122.361" viewBox="0 0 117.671 122.361"><defs><style>.a{fill:#fff;}</style></defs><g transform="translate(0 0)"><g transform="translate(0 0)"><g transform="translate(91.716 75.398)"><path class="a" d="M94.085,167.356h21.01a2.472,2.472,0,0,0,2.473-2.473v-21.01a2.473,2.473,0,0,0-4.946,0V162.41H94.085a2.473,2.473,0,0,0,0,4.946Z" transform="translate(-91.612 -141.4)"/></g><g transform="translate(91.716)"><path class="a" d="M115.095,92.532a2.473,2.473,0,0,0,2.473-2.473V69.049a2.473,2.473,0,0,0-2.473-2.473H94.085a2.473,2.473,0,1,0,0,4.946h18.537V90.059A2.473,2.473,0,0,0,115.095,92.532Z" transform="translate(-91.612 -66.576)"/></g><g transform="translate(0 75.398)"><path class="a" d="M185.1,167.356h21.01a2.473,2.473,0,1,0,0-4.946H187.575V143.873a2.473,2.473,0,0,0-4.946,0v21.01A2.472,2.472,0,0,0,185.1,167.356Z" transform="translate(-182.629 -141.4)"/></g><g transform="translate(34.983 96.408)"><path class="a" d="M141.8,188.2a2.472,2.472,0,0,0,1.72-.7L164.539,167.2h6.984a2.473,2.473,0,0,0,0-4.946H163.54a2.477,2.477,0,0,0-1.72.7L144.27,179.9V164.723a2.471,2.471,0,0,0-2.473-2.473H133.71a2.473,2.473,0,1,0,0,4.946h5.615v18.535a2.477,2.477,0,0,0,1.507,2.277A2.508,2.508,0,0,0,141.8,188.2Z" transform="translate(-131.237 -162.25)"/></g><path class="a" d="M185.1,92.532a2.472,2.472,0,0,0,2.473-2.473V71.522h18.537a2.473,2.473,0,1,0,0-4.946H185.1a2.473,2.473,0,0,0-2.473,2.473v21.01A2.473,2.473,0,0,0,185.1,92.532Z" transform="translate(-182.629 -66.576)"/><g transform="translate(13.499 21.207)"><rect class="a" width="4.946" height="58.938" rx="2.45" transform="translate(42.864)"/><rect class="a" width="4.946" height="21.432" rx="2.45" transform="translate(32.148 18.753)"/><rect class="a" width="4.946" height="35.857" rx="2.45" transform="translate(21.432 11.54)"/><rect class="a" width="4.946" height="16.898" rx="2.45" transform="translate(10.716 21.02)"/><rect class="a" width="4.946" height="7.419" rx="2.45" transform="translate(0 25.76)"/><rect class="a" width="4.946" height="21.432" rx="2.45" transform="translate(53.58 18.753)"/><rect class="a" width="4.946" height="35.857" rx="2.45" transform="translate(64.296 11.54)"/><rect class="a" width="4.946" height="16.898" rx="2.45" transform="translate(75.012 21.02)"/><rect class="a" width="4.946" height="7.419" rx="2.45" transform="translate(85.728 25.76)"/></g></g></g></svg>