<svg xmlns="http://www.w3.org/2000/svg" width="64.667" height="55.671" viewBox="0 0 64.667 55.671"><defs><style>.a{fill:#13545a;}</style></defs><path class="a" d="M63.258,44.692l-5.211-5.211a4.81,4.81,0,0,0-6.8,0l-5.763,5.763h0l-9.465,9.465a22.807,22.807,0,0,1,1.634-6.4,7.776,7.776,0,0,0-2.082-9.171c-2.545-2.246-6.55-3.5-11.278-3.524h-.145A31.7,31.7,0,0,0,9.42,39.453c-3.937,2.118-6.8,4.67-8.284,7.38a7.309,7.309,0,0,0-.511,6.821A5.283,5.283,0,0,0,4,56.381a7.11,7.11,0,0,0,4.95-.611c4.73-2.267,10.239-2.723,11.058-1.422.131.209,1.037,2.24-7.526,9.116-.982.789-1.907,1.572-2.75,2.329A.947.947,0,0,0,11,67.2c.817-.734,1.716-1.495,2.671-2.262,6.815-5.472,9.413-9.267,7.943-11.6-1.81-2.876-8.992-1.428-13.48.723-2.45,1.174-4.843.653-5.819-1.266A5.474,5.474,0,0,1,2.8,47.742c.911-1.665,2.955-4.165,7.52-6.62a29.712,29.712,0,0,1,13.96-3.614c4.208.023,7.866,1.135,10.035,3.05a5.919,5.919,0,0,1,1.569,7.067c-1.424,3.683-2,6.683-1.714,8.934L17.7,73.022a12.235,12.235,0,0,0-2.921,4.7l-1.34,3.953c-4.815-.053-8.066-1.2-8.966-3.2-.866-1.919.315-4.754,3.415-8.2A.947.947,0,0,0,6.484,69.01c-3.693,4.1-4.949,7.552-3.733,10.246,1.205,2.67,4.67,4.146,10.055,4.3l-1.177,3.472a3.222,3.222,0,0,0,3.04,4.255,3.242,3.242,0,0,0,1.042-.173l9.308-3.155a12.236,12.236,0,0,0,4.7-2.92l9.211-9.211c2.2-.058,4.722.72,7.9,2.431a.947.947,0,0,0,.9-1.668,21.081,21.081,0,0,0-7.01-2.551L53.192,61.562h0l6.031-6.031a.947.947,0,1,0-1.34-1.34l-1.059,1.059-9.334-9.334,5.093-5.093a2.916,2.916,0,0,1,4.123,0l5.211,5.211a2.916,2.916,0,0,1,0,4.124l-.975.975a.947.947,0,0,0,1.34,1.34l.975-.975a4.811,4.811,0,0,0,0-6.8ZM41.849,51.557l2.218,2.218L23.695,74.147l.04-.158a1.729,1.729,0,0,0-2.1-2.1l-.158.04ZM26.839,75.9a1.714,1.714,0,0,0-1.647-.453l-.158.04L45.407,55.115l2.218,2.218L27.253,77.705l.04-.158A1.714,1.714,0,0,0,26.839,75.9ZM15.1,89.317a1.324,1.324,0,0,1-1.679-1.679L14.8,83.562l4.373,4.373ZM28.2,83.873a10.335,10.335,0,0,1-3.785,2.288l-3.232,1.1-5.7-5.7,1.1-3.232a10.333,10.333,0,0,1,2.289-3.785l2.963-.75-.494,1.952a1.714,1.714,0,0,0,.452,1.645l0,0,0,0a1.713,1.713,0,0,0,1.645.452l1.952-.494L24.894,79.3a1.729,1.729,0,0,0,2.1,2.1l1.952-.494Zm2.615-2.61.04-.158a1.729,1.729,0,0,0-2.1-2.1l-.158.04L48.965,58.673l2.218,2.218ZM55.485,56.588l-2.963,2.963-9.334-9.334,2.963-2.963Z" transform="translate(0 -35.613)"/></svg>